<?xml version="1.0" encoding="UTF-8"?> <svg xmlns="http://www.w3.org/2000/svg" viewBox="0 0 1540.15 896.64"><defs><style>.cls-1{fill:#fea000;}.cls-2{fill:#fff;}</style></defs><g id="Слой_2" data-name="Слой 2"><g id="Слой_1-2" data-name="Слой 1"><path class="cls-1" d="M0,460.23c1.35-1.18,2.78-2.3,4.05-3.56L457.6,3.39c4.54-4.53,4.54-4.53,9.15.08L620.3,156.92Q388.7,388.37,157.15,619.81,80.76,543.44,4,466.77c-1.26-1.26-2.68-2.36-4-3.54Z"></path><path class="cls-2" d="M767.4,896.64c-2.79-1.95-6.22-1.84-9.32-2.78-30.47-9.3-49.81-38.78-46.49-71.09,3.24-31.58,28.19-56.76,59.27-59.81,35.95-3.53,66.95,18.7,74,53.1a66.65,66.65,0,0,1-54.57,79.68c-.36.06-.63.59-1,.9Zm65.1-66.8c0-30.47-23.64-54.8-53.35-54.85-30.42,0-54.17,24.1-54.19,55.12,0,30.35,23.43,54.35,53.13,54.37C809.12,884.5,832.47,861.05,832.5,829.84Z"></path><path class="cls-2" d="M1237,896.64c-2.79-1.95-6.21-1.84-9.32-2.78-30.46-9.3-49.8-38.78-46.49-71.09,3.25-31.58,28.2-56.76,59.27-59.81,36-3.53,67,18.7,74,53.1A66.65,66.65,0,0,1,1260,895.74c-.35.06-.63.59-.94.9Zm65.1-66.9c0-30.43-23.69-54.71-53.46-54.75-30.38,0-54.07,24.15-54.08,55.22,0,30.34,23.47,54.26,53.24,54.27C1278.81,884.49,1302.12,861,1302.13,829.74Z"></path><path class="cls-2" d="M989.23,896.64c-2-1.68-4.61-1.46-6.91-2.24-16.63-5.63-26.31-18-26.75-37.39-.67-29.44-.25-58.9-.36-88.36,0-2,.41-2.79,2.69-2.91,10.2-.56,10.18-.66,10.2,9.47,0,26.62-.07,53.25.21,79.87.24,23,23.81,36.72,43.84,25.68,8.34-4.59,12.77-12,14-21.2a122.09,122.09,0,0,0,.84-15.42c.08-24.63.14-49.27-.07-73.89,0-3.89,1.11-4.63,4.7-4.53,8.42.24,8.45,0,8.42,8.24-.09,26,0,51.92-.43,77.87-.21,11.55-2.32,22.78-10.6,31.91-6.23,6.86-14,10.62-22.79,12.9Z"></path><path class="cls-2" d="M646.5,896.64c-13-4-22.35-12.26-29-24-1.57-2.77-1.37-4,1.44-5.62,7.49-4.33,7.42-4.47,12.12,2.6a42.23,42.23,0,0,0,8.54,9.69,22.77,22.77,0,0,0,30.45-1.43c8.08-7.73,8.8-19.34,1.68-28.93-5.52-7.42-12.7-13.13-20-18.72-6.33-4.87-12.87-9.52-18.42-15.29-8.44-8.78-11.85-19.24-8.35-31.15,3.35-11.41,11.56-17.9,23-20.45,14.3-3.19,34.18,5.6,39.43,18.38,1.6,3.89-4.68,4.76-7,7.38-1.09,1.24-2.42,2.38-3.92.13a46.76,46.76,0,0,0-7.95-8.91,20.45,20.45,0,0,0-14.1-5.36c-13.06.12-20.86,12-15.59,24a30.19,30.19,0,0,0,9,11.14c10.29,8.41,21.69,15.47,30.84,25.27,10.23,11,15.27,23.41,9.9,38.27-4,11-12.18,17.94-23.19,21.7-1,.34-2.46-.2-3,1.29Z"></path><path class="cls-2" d="M1490.84,896.64c-13-4-22.35-12.26-29-24-1.57-2.77-1.37-4,1.44-5.62,7.49-4.33,7.42-4.47,12.12,2.6a42.47,42.47,0,0,0,8.54,9.69,22.77,22.77,0,0,0,30.45-1.43c8.08-7.73,8.8-19.34,1.68-28.93-5.52-7.42-12.7-13.13-19.95-18.72-6.33-4.87-12.87-9.52-18.42-15.29-8.44-8.78-11.85-19.24-8.35-31.15,3.35-11.41,11.57-17.9,23-20.45,14.3-3.19,34.18,5.6,39.43,18.38,1.6,3.89-4.68,4.76-7,7.38-1.08,1.24-2.42,2.38-3.92.13a46.43,46.43,0,0,0-8-8.91,20.45,20.45,0,0,0-14.1-5.36c-13.06.12-20.86,12-15.59,24a30.19,30.19,0,0,0,9,11.14c10.29,8.41,21.69,15.47,30.84,25.27,10.24,11,15.27,23.41,9.9,38.27-4,11-12.18,17.94-23.19,21.7-1,.34-2.45-.2-3,1.29Z"></path><path class="cls-1" d="M707.45,533.87c0-2.34,0-3.29,0-4.23-1.69-86.3-.56-172.61-1.2-258.92-.12-16.06-.62-32.15-.88-48.22a10.06,10.06,0,0,1,3.3-7.76c41-42.76,83.88-83.61,125.07-126.14,28-28.92,56.9-56.91,84.93-85.77,3.28-3.38,5-3.23,8.26,0,25.3,25.55,50.4,51.32,76.34,76.2,25.33,24.29,49.71,49.51,74.88,73.93,3,2.9,3.35,4.66,0,7.25a66.57,66.57,0,0,0-6.05,5.95c-66,66.27-132.3,132.17-197.76,198.93-38.2,38.95-77.44,76.87-115.25,116.18C742.37,498.68,725,515.32,707.45,533.87Z"></path><path class="cls-1" d="M1167.09,532.34c0-33,.71-65.92-.15-98.84-1.82-70.49-.18-141-.93-211.47,0-3.65.9-6.25,3.63-8.63,3.38-3,6.45-6.26,9.58-9.48,48.31-49.55,97.69-98,146.18-147.38,17.7-18,35.71-35.72,53.19-53.94,2.75-2.88,4.43-3.29,7.54-.19q52.29,52.11,104.85,104c15.72,15.6,31.28,31.34,47,46.9,2.44,2.4,3.14,3.67.27,6.54q-62,62.16-123.81,124.56C1399,300,1383.09,315.14,1367.93,331c-38.36,40.19-78.78,78.35-117.31,118.35-25.95,26.95-52.84,52.95-78.95,79.73a33.88,33.88,0,0,0-3.15,4.36Z"></path><path class="cls-1" d="M620.32,244.49v465c-1.92.69-2.52-.86-3.36-1.7q-76.5-76.37-153-152.74a7.8,7.8,0,0,1-2.39-6.12q.11-71.13,0-142.25c0-2.39.34-4.3,2.23-6.19q77.61-77.36,155.09-154.85C619.17,245.41,619.44,245.21,620.32,244.49Z"></path><path class="cls-1" d="M1080.11,244.32v464.8c-1.57.62-2-.84-2.71-1.53q-76.35-76.2-152.65-152.44a7.77,7.77,0,0,1-2.53-6.06q.12-71.88,0-143.77a7.26,7.26,0,0,1,2.16-5.72q76.89-76.69,153.68-153.5C1078.51,245.67,1079,245.29,1080.11,244.32Z"></path><path class="cls-2" d="M81.9,870.19c6.27-12.78,12.12-24.64,17.91-36.52,10.46-21.46,20.85-42.95,31.35-64.38.65-1.34.79-3.57,3.06-3.42,2.71.18,1.62,2.53,1.82,3.89q8.82,60.42,17.54,120.86c.36,2.46-.11,3-2.63,3.11-10,.31-9.83.39-11.15-9.42-3.6-26.78-7.37-53.54-11.28-81.71-2.83,5.63-5.12,10.09-7.34,14.59q-18,36.6-36,73.22c-.69,1.41-.8,3.17-3.1,3.31-2.6.15-2.9-1.81-3.66-3.35q-20.31-40.74-40.56-81.5c-.79-1.59-1.66-3.14-3.25-6.12-1.32,9.31-2.48,17.1-3.52,24.89-2.78,20.75-5.59,41.5-8.2,62.26-.42,3.32-1.9,3.86-4.84,3.82-8.47-.1-8.45,0-7.29-8.19Q19,827.8,27.14,770.05c.21-1.46-.41-3.84,1.77-4.09s2.24,2.19,2.91,3.55Q55.46,816.91,79,864.4C79.76,866,80.59,867.62,81.9,870.19Z"></path><path class="cls-2" d="M274.26,829.74c0-19.8.11-39.61-.1-59.41,0-3.78,1-4.72,4.69-4.6,17.27.53,34.61-1,51.82,1.82,29.92,4.82,49.5,26.83,51.17,57.31,1,18.58-2.52,35.68-14.93,50.24-12,14.09-28.14,18.11-45.61,18.49-14.31.32-28.64,0-42.95.15-3.25,0-4.19-.8-4.17-4.1C274.34,869.67,274.26,849.7,274.26,829.74Zm12.53-.42c0,15.8,0,31.59,0,47.38,0,1.44-1.32,4,2,3.95,15.44-.21,31,.73,46.18-2.7,20.31-4.59,32.78-21.22,33.77-44.26,1.25-29.06-15.14-48.9-43.82-53.11-11.22-1.65-22.53-1.35-33.8-1.88-4.06-.19-4.49,1.3-4.45,4.74C286.88,798.74,286.79,814,286.79,829.32Z"></path><path class="cls-2" d="M1355.64,798.51c-1.21,1.79-.65,3.47-.66,5,0,28.61-.09,57.21.06,85.82,0,3.44-.73,4.47-4.3,4.39-9.31-.23-9.31,0-9.31-9.38q0-56.88.06-113.77c0-1.56-1.27-3.86,1.18-4.7,2.21-.77,3.18,1.31,4.33,2.63q37.79,43.46,75.54,87c1.84,2.12,3.72,4.19,5.67,6.39,1.55-1.66.78-3.55.78-5.23.06-28.77.13-57.55,0-86.32,0-3.8,1-4.73,4.67-4.62,8.44.26,8.45,0,8.45,8.64q0,57.14-.07,114.27c0,1.63,1.25,4-.86,4.9-2.29,1-3.47-1.23-4.77-2.71l-79.06-90.5C1356.79,799.73,1356.26,799.18,1355.64,798.51Z"></path><path class="cls-2" d="M179.33,829.72c0-19.8.12-39.59-.09-59.39,0-3.79,1-4.65,4.68-4.61q32.46.28,64.92,0c3.31,0,4.1.9,4,4.11-.13,9,0,9-9.09,9-15.81,0-31.63.11-47.44-.08-3.32,0-4.12.93-4.06,4.13.2,10.65.23,21.3,0,31.94-.08,3.42,1.08,4,4.18,4,17-.14,34,0,50.94-.15,3.69,0,5.2.61,5,4.77-.33,8.3-.07,8.31-8.38,8.31-15.82,0-31.63.12-47.44-.09-3.52,0-4.39.92-4.33,4.39.21,13.47.23,27,0,40.42-.06,3.61,1.06,4.31,4.43,4.28,17-.18,34,0,50.94-.16,3.52,0,4.93.51,4.79,4.5-.29,8.57,0,8.58-8.62,8.58-20.14,0-40.29-.08-60.43.08-3.3,0-4.15-.88-4.13-4.13C179.41,869.65,179.33,849.68,179.33,829.72Z"></path><path class="cls-2" d="M558.29,893.48c-13.07.7-13.09.71-18.48-10.49-4.31-9-8.64-17.92-12.77-27-1.1-2.41-2.28-3.42-5.12-3.39q-24.21.25-48.43,0c-3.06,0-4.31,1.15-5.46,3.67-5,10.84-10.37,21.51-15.14,32.45-1.63,3.75-3.45,5.53-7.62,5a65,65,0,0,0-8.37-.07c-.63-1.23-.06-2.08.36-3Q465.9,830,494.52,769.29c.72-1.53.8-3.61,3.43-3.53,2.09.06,2.31,1.58,2.91,2.87q28.8,62,57.6,124C558.51,892.71,558.4,892.9,558.29,893.48Zm-38.79-54c-7.21-15.38-14.25-30.38-21.68-46.21-7.45,15.8-14.53,30.84-21.77,46.21Z"></path><path class="cls-2" d="M1099.67,836.23c0,17.81-.09,35.61.08,53.42,0,3.33-1,4.13-4.18,4.09-9.27-.11-9.27,0-9.27-9.39,0-33.62-.08-67.23.11-100.84,0-4-1.16-5-4.94-4.78-6.81.3-13.65,0-20.47.14-2.42,0-3-.69-3.08-3.06-.34-10-.43-10,9.56-10,18.82,0,37.63.09,56.45-.08,3.31,0,4.56.56,4.47,4.21-.21,8.87,0,8.87-8.72,8.87-5.33,0-10.67.2-16-.07-3.25-.17-4.14.79-4.11,4.08C1099.76,800.62,1099.67,818.43,1099.67,836.23Z"></path><path class="cls-2" d="M871.79,829.52c0-19.63.11-39.25-.09-58.87,0-3.84.85-5.1,4.86-4.94,8.27.31,8.28.07,8.28,8.41,0,33.93.06,67.85-.1,101.78,0,3.9,1,4.93,4.87,4.85,13.3-.25,26.62,0,39.93-.19,3.68-.06,4.81.78,4.68,4.61-.28,8.48-.05,8.49-8.68,8.49-16.47,0-32.94-.1-49.42.08-3.45,0-4.44-.83-4.41-4.36C871.88,869.43,871.79,849.47,871.79,829.52Z"></path><path class="cls-2" d="M418.52,829.71c0,20-.07,39.93.08,59.89,0,3.24-.81,4.18-4.11,4.15-9.33-.11-9.33,0-9.33-9.35,0-37.92.06-75.85-.09-113.78,0-3.88.92-5,4.88-4.91,8.56.3,8.57.07,8.57,8.61Z"></path><path class="cls-2" d="M1144.58,829.48c0-19.8.09-39.59-.08-59.39,0-3.51.93-4.44,4.41-4.37,9,.18,9,0,9,9.12,0,37.93-.08,75.86.1,113.79,0,4.18-1,5.3-5.17,5.13-8.29-.33-8.3-.08-8.3-8.39Z"></path></g></g></svg>
